<svg width="218" height="28" xmlns="http://www.w3.org/2000/svg"><g fill-rule="nonzero" fill="none"><path d="M12.65 22.86c-3.68 0-7.36.03-11.05-.03-.53 0-1.07-.38-1.6-.58.25-.6.47-1.23.77-1.8.17-.32.66-.54.7-.84.15-1.45 1.12-1.52 2.24-1.52 6.04.02 12.08.02 18.12 0 1.05 0 1.99.03 2.17 1.43.06.4.68.7.93 1.12.28.47.66 1.1.53 1.5-.43 1.42-10.73.46-12.8.72ZM11.82 3.5V2.3l-1.76-.12c.14-2.9 5.04-2.9 5.37-.05l-1.76.19-.11.97c.13.12.19.22.25.22.94-.05 1.3.44 1.13 1.3-.92 3.39 8.96 1.31 9.35 11.06.03.79-.28 1.14-1.08 1.14H2.23c-.84 0-1.04-.42-1.01-1.17.31-9.42 9.8-7.91 9.27-10.6-.1-.97-.11-1.92 1.33-1.74Zm-4.2 5.38c-2.63.95-3.86 2.95-3.48 5.58l1.19-.06a7.51 7.51 0 0 1 2.3-5.52Z" fill="#C59A2C"/><path d="M27.22 5.27h8.9l.25.28c-.26.24-.49.61-.8.7-1.67.43-1.75.5-1.76 2.26v4.35h7.41c0-1.75.04-3.44-.02-5.12-.1-1.44-1.82-1.14-2.57-2.1l.2-.34h9.12l.22.28c-.28.23-.56.62-.87.65-1.38.13-1.8.92-1.78 2.19.03 3.65.03 7.3 0 10.94 0 1.26.4 2.06 1.77 2.2.28.03.51.38.77.58-.28.14-.57.4-.86.4-2.53.04-5.05.04-7.58 0-.28 0-.56-.27-.86-.41.26-.18.5-.48.77-.5 1.31-.11 1.77-.81 1.72-2.08-.07-1.73-.02-3.46-.02-5.27h-7.4c0 1.96-.03 3.94.02 5.91.05 1.42 1.75 1.1 2.52 1.98l-.2.35h-8.93l-.25-.25c.25-.23.49-.63.76-.65 1.41-.1 1.76-.9 1.74-2.17-.05-3.6-.06-7.2 0-10.81.02-1.32-.35-2.14-1.76-2.36-.3-.05-.54-.43-.8-.66l.29-.35Z" fill="#FFF"/><path d="M57.41 23.07c-12.55.23-12.18-18.65.05-18.3 12.48-.15 12.1 18.62-.05 18.3Zm4.72-9.08c-.76-3.07-.45-7.92-4.66-8.04-6.27-.39-6.22 16.47.04 15.93 4.1-.14 3.84-4.93 4.62-7.9ZM160.7 10.6l5.78-.31.23 1.44c2.49-2.15 6.16-2.26 8.04.69 3.7 5.56-1.87 13.01-8.15 9.75v2.3c0 2.06 0 2.04 1.96 2.62.24.08.42.38.63.56-.23.12-.46.33-.69.33-2.44.03-4.88.03-7.31 0-.25 0-.49-.28-.73-.42 1.1-1.03 2.06-.07 2.1-2.27-.02-3.89-.02-7.78 0-11.67 0-2.06-1.25-1.47-2.2-2.71l.33-.3Zm11.03 6.04c-.63-1.87-.95-5.6-3.79-4.5-.54.2-1.23.88-1.27 1.4a56.81 56.81 0 0 0-.03 6.04c-.1 2.27 3.4 3.14 4.1.87.44-1.18.66-2.44.99-3.8ZM127.29 4.57v7.66c.64-.5 1.1-.88 1.6-1.21 2.95-2.18 7.38-.42 6.93 3.5 0 1.78.02 3.56 0 5.34 0 1.96.98 1.22 1.78 2.36-.28.12-.54.33-.8.34-1.91.03-3.81.03-5.72 0-.28 0-.53-.24-.8-.36.5-.47 1.32-1.12 1.45-1.75.07-2.07.06-4.14 0-6.21-.04-1.45-.7-2.1-1.91-2.07-1.33.04-2.52 1.06-2.54 2.2-.02 1.83 0 3.65 0 5.48.03 2.09 1.02 1.19 1.62 2.39-.2.1-.4.3-.59.3-2.07.03-4.14.03-6.2 0-.2 0-.41-.27-.61-.41.9-.99 1.77-.12 1.8-2.12a939.9 939.9 0 0 1 0-11.93c-.05-2.66-1.3-1.5-2.04-2.86.97-.76 4.38-.42 6.03-.65ZM101.84 9.86c-.5-.3-.92-.41-1.03-.66-1.33-3.3-4.3-2.97-7.28-2.88v6.7c2.24.03 3.95.22 4.68-2.28.11-.28.43-.48.66-.72.15.28.42.56.43.84.03 1.87.02 3.73 0 5.6 0 .29-.23.54-.35.8-2.15-1.67-.73-3.74-5.46-2.97 0 1.92-.03 3.85.02 5.78.03.86.61 1.34 1.48 1.36 2.44-.12 4.73.7 6.03-1.93.52-.9.9-1.88 1.85-2.4l.28.22-.3 5.17c-5.04.22-10.08.02-15.12.09-.46.1-.8-.17-1.16-.4 1.26-1.4 2.64.34 2.54-3.06-.01-3.56-.04-7.12.02-10.68.06-2.26-1.39-1.68-2.7-2.75l.18-.37h15.25l-.02 4.54Z" fill="#FFF"/><path d="M67.9 9.97V5.32h16.78c-.12.81.33 4.74-.4 4.81-2.03-.43-.82-4.61-5.77-3.69-.2 4.2-.03 8.46-.09 12.67-.17 2.9 1.24 1.56 2.74 3.12l-.22.34c-2.97 0-5.94 0-8.91-.02-.2 0-.4-.28-.59-.42 1.59-1.58 2.78.13 2.65-3.18-.04-4.16.07-8.34-.06-12.49-3.95-.76-3.41 1.37-5.79 3.85l-.33-.34ZM104.42 5.29h9.26l.22.3c-1.45 1.55-2.9.1-2.7 2.94 0 3.52-.02 7.04 0 10.56-.06 2.18.6 2.4 2.65 2.37 4.13.55 4.33-1.96 6.32-4.59l.44.21-.32 5.49c-5.03 0-9.88.02-14.88-.02-.36 0-.72-.28-1.08-.45 1.2-1.02 2.56-.23 2.54-2.4-.05-3.78-.06-7.55 0-11.31.08-2.14-1.48-1.64-2.65-2.75l.2-.35ZM150.97 16.11h-7.86c-1.05 4.2 3.64 6.89 6.66 3.79.5-.5.92-1.22 1.6-.08-2.76 4.62-11.15 4.18-12.56-1.18-.71-2.73-.22-5.18 2.02-7.08 3.64-3.08 11.38-1.3 10.14 4.55Zm-4.13-1.12c-.1-.91-.03-1.7-.31-2.35-.28-.64-.9-1.44-1.37-1.46-1.9.2-2.14 2.14-2.4 3.8l4.08.01ZM160.27 22.57c-2.69 0-4.92 0-7.16-.02-.25 0-.5-.25-.75-.39.84-.92 1.82-.28 1.82-1.96V8.27c0-1.14-.45-1.89-1.63-2.15-.25-.05-.45-.36-.66-.56.23-.16.45-.44.68-.46 1.81-.13 3.63-.2 5.58-.3.15 4.91.03 9.78.05 14.69 0 1.04.15 1.9 1.37 2.16.2.05.35.44.7.92ZM204.1 21.52h-5.07c1-.58 1.02-1.45.97-2.38-.05-1.03 0-2.07-.05-3.1-.04-.76-.34-1.43-1.26-1.36-.92.07-1.65.4-1.7 1.44 0 1.9-.42 3.77.89 5.38h-5.2c2.32-.87 1.5-2.54 1.56-3.87.04-1.34.61-2.98-1.46-3.66l.19-.35c1.23-.04 2.47-.11 3.7-.08.17 0 .31.56.47.86 2.24-1.63 5.5-1.72 5.52 1.78.04.91 0 1.82.01 2.73.01 1.6.01 1.6 1.43 2.61ZM192 21.52h-6.4c.04-.18.04-.25.06-.25 2.1-.28 1.71-1.85 1.7-3.23 0-1.82-.03-3.64 0-5.45.04-1.03-.12-1.81-1.34-1.93-.16 0-.3-.21-.76-.55h6.78c0 .12-.02.23-.06.33-1.85.23-1.73 1.56-1.7 2.91.05 1.94.05 3.88 0 5.83-.03 1.07.23 1.78 1.44 1.84.12 0 .23.16.35.25l-.07.25ZM210.24 14.16c-2.62-1.1-2.82 3.77-1.97 5.22.89 2.05 3.24 1.57 4.33-.1l.32.08c-.22 2.13-2.71 2.87-4.82 2.42-3.69-.48-4.26-6.03-1.36-7.7a5.02 5.02 0 0 1 5.2-.22c.78.41 1.18 1.2.75 2-.63 1.05-2.97 1.18-2.6-.6.07-.36.1-.72.15-1.1ZM177.35 26.84c1.52-1.26 2.8-2.24 3.01-4.17-4.62.13-3.72-4.82-.26-4.1 3.98 1.6 1.38 7.24-1.77 8.54-.2.11-.65-.17-.98-.27ZM217.5 20.3c-.01 2.02-3.16 2.11-3.16 0 0-2.1 3.1-2.07 3.17 0Z" fill="#FFF"/></g></svg>